HIERARCHY
ROOT Hips
{
 OFFSET 0.000000 0.000000 0.000000
 CHANNELS 6 Xposition Yposition Zposition Yrotation Xrotation Zrotation
 JOINT Chest
 {
  OFFSET 0.000000 9.585900 0.002600
  CHANNELS 3 Yrotation Xrotation Zrotation
  JOINT Chest2
  {
   OFFSET 0.000000 9.601200 -0.005300
   CHANNELS 3 Yrotation Xrotation Zrotation
   JOINT Chest3
   {
    OFFSET 0.000000 9.561800 0.000000
    CHANNELS 3 Yrotation Xrotation Zrotation
    JOINT Chest4
    {
     OFFSET 0.000000 9.552100 0.000000
     CHANNELS 3 Yrotation Xrotation Zrotation
     JOINT Neck
     {
      OFFSET 0.000000 14.453000 0.000000
      CHANNELS 3 Yrotation Xrotation Zrotation
      JOINT Head
      {
       OFFSET 0.000000 8.936500 -0.011300
       CHANNELS 3 Yrotation Xrotation Zrotation
       End Site
       {
        OFFSET 0.000000 17.073600 -0.006000
       }
      }
     }
     JOINT RightCollar
     {
      OFFSET -2.921100 9.558500 0.000000
      CHANNELS 3 Yrotation Xrotation Zrotation
      JOINT RightShoulder
      {
       OFFSET -13.519700 0.000000 0.000000
       CHANNELS 3 Yrotation Xrotation Zrotation
       JOINT RightElbow
       {
        OFFSET 0.000000 -29.696600 0.000000
        CHANNELS 3 Yrotation Xrotation Zrotation
        JOINT RightWrist
        {
         OFFSET 0.000000 -24.004700 0.000000
         CHANNELS 3 Yrotation Xrotation Zrotation
         End Site
         {
          OFFSET 0.000000 -17.728500 0.000000
         }
        }
       }
      }
     }
     JOINT LeftCollar
     {
      OFFSET 2.921100 9.558500 0.000000
      CHANNELS 3 Yrotation Xrotation Zrotation
      JOINT LeftShoulder
      {
       OFFSET 13.519700 0.000000 0.000000
       CHANNELS 3 Yrotation Xrotation Zrotation
       JOINT LeftElbow
       {
        OFFSET 0.000000 -29.696600 0.000000
        CHANNELS 3 Yrotation Xrotation Zrotation
        JOINT LeftWrist
        {
         OFFSET 0.000000 -24.004700 0.000000
         CHANNELS 3 Yrotation Xrotation Zrotation
         End Site
         {
          OFFSET 0.000000 -17.728500 0.000000
         }
        }
       }
      }
     }
    }
   }
  }
 }
 JOINT RightHip
 {
  OFFSET -7.771700 -0.012900 -0.001300
  CHANNELS 3 Yrotation Xrotation Zrotation
  JOINT RightKnee
  {
   OFFSET 0.000000 -40.869800 0.001200
   CHANNELS 3 Yrotation Xrotation Zrotation
   JOINT RightAnkle
   {
    OFFSET 0.000000 -39.717900 0.002100
    CHANNELS 3 Yrotation Xrotation Zrotation
    JOINT RightToe
    {
     OFFSET 0.000000 -4.965400 11.033500
     CHANNELS 3 Yrotation Xrotation Zrotation
     End Site
     {
      OFFSET 0.000000 -1.423100 5.872300
     }
    }
   }
  }
 }
 JOINT LeftHip
 {
  OFFSET 7.771700 -0.012900 -0.001300
  CHANNELS 3 Yrotation Xrotation Zrotation
  JOINT LeftKnee
  {
   OFFSET 0.000000 -40.869800 0.001200
   CHANNELS 3 Yrotation Xrotation Zrotation
   JOINT LeftAnkle
   {
    OFFSET 0.000000 -39.717900 0.002100
    CHANNELS 3 Yrotation Xrotation Zrotation
    JOINT LeftToe
    {
     OFFSET 0.000000 -4.965400 11.033500
     CHANNELS 3 Yrotation Xrotation Zrotation
     End Site
     {
      OFFSET 0.000000 -1.423100 5.872300
     }
    }
   }
  }
 }
}
MOTION
Frames: 15
Frame Time: 0.008333
-66.819760 43.915357 17.347080 174.310522 -22.721141 -2.246738 -0.143932 18.026084 3.003105 -0.086059 2.045484 0.395875 -0.120514 3.376511 0.660160 -0.266834 15.732362 3.060475 -0.609871 17.036132 -3.684258 0.183379 -7.753661 -3.753595 9.674760 0.880515 -3.276797 -8.533097 -9.350723 -1.122106 64.425998 -76.154460 -59.850355 -1.957543 -6.618425 -39.009909 -14.503889 -0.391830 -5.796323 16.130850 -6.760629 -0.366940 -100.775445 -75.882608 97.701765 11.403762 0.820821 38.057537 -5.264231 -68.171249 15.141443 -142.582739 64.572153 -140.115153 -7.182902 -26.110594 6.577986 0.229264 -0.792621 0.105306 4.045826 -57.300028 1.486507 174.558763 61.265471 174.738113 -1.600000 -39.165909 3.443594 0.096076 0.280803 0.044186
-66.818702 43.913959 17.349458 174.299664 -22.711732 -2.241886 -0.126323 18.009709 3.008351 -0.083681 2.043886 0.397110 -0.129398 3.382699 0.656449 -0.258410 15.725732 3.059502 -0.610212 17.036274 -3.684245 0.177736 -7.750115 -3.750768 9.668068 0.882227 -3.276513 -8.532414 -9.347196 -1.122344 64.435352 -76.156257 -59.855383 -1.951843 -6.622608 -38.996858 -14.507519 -0.391758 -5.791279 16.128303 -6.756861 -0.366771 -100.799095 -75.874827 97.731940 11.392287 0.833847 38.045157 -5.271309 -68.186469 15.160345 -142.548840 64.566091 -140.087151 -7.175413 -26.092639 6.573241 0.229380 -0.801825 0.107387 4.060197 -57.311576 1.487814 174.567835 61.265263 174.746590 -1.599249 -39.163912 3.444962 0.098303 0.280410 0.044851
-66.818597 43.913465 17.350463 174.295940 -22.712018 -2.235656 -0.121264 18.006934 3.005097 -0.083686 2.043741 0.397804 -0.125281 3.379417 0.657407 -0.242687 15.719790 3.059132 -0.627307 17.043368 -3.680917 0.177054 -7.750833 -3.751201 9.665049 0.867541 -3.284603 -8.543594 -9.325050 -1.115780 64.469055 -76.157804 -59.886081 -1.932729 -6.624801 -38.991293 -14.526911 -0.390818 -5.787015 16.126661 -6.747382 -0.365334 -100.829365 -75.864002 97.780929 11.399779 0.846775 38.026174 -5.260063 -68.188296 15.152714 -142.533435 64.565400 -140.075042 -7.167616 -26.084462 6.567027 0.224597 -0.806040 0.109509 4.073685 -57.311772 1.478091 174.574291 61.266275 174.752898 -1.591864 -39.160867 3.444164 0.097453 0.279057 0.043780
-66.817609 43.913502 17.351364 174.294235 -22.715073 -2.237978 -0.115108 18.007081 3.009257 -0.079538 2.040809 0.397817 -0.124021 3.379136 0.657360 -0.245857 15.722706 3.061665 -0.627776 17.042194 -3.682543 0.188582 -7.764532 -3.756826 9.670249 0.860756 -3.291492 -8.553621 -9.316259 -1.110131 64.601727 -76.155010 -60.005766 -1.940658 -6.605374 -38.999086 -14.525990 -0.398892 -5.784756 16.131713 -6.743005 -0.360445 -100.824138 -75.868763 97.772302 11.400748 0.847662 38.020444 -5.267072 -68.185668 15.162325 -142.522232 64.565040 -140.065752 -7.150901 -26.074229 6.557629 0.212995 -0.808911 0.107159 4.071109 -57.309320 1.484657 174.578360 61.266548 174.757754 -1.586977 -39.160113 3.443101 0.095643 0.279362 0.042277
-66.818252 43.913810 17.352090 174.298716 -22.718936 -2.235497 -0.119627 18.010128 3.007002 -0.079348 2.040583 0.397972 -0.123115 3.376625 0.664733 -0.249702 15.725657 3.052789 -0.622352 17.038335 -3.682619 0.188119 -7.764067 -3.757898 9.682269 0.854797 -3.298260 -8.564770 -9.310485 -1.105785 64.657277 -76.154327 -60.049365 -1.944383 -6.594674 -39.010744 -14.522214 -0.406826 -5.782936 16.139735 -6.742901 -0.355733 -100.830576 -75.871673 97.769591 11.403187 0.826771 38.030678 -5.261719 -68.181528 15.153741 -142.511624 64.564347 -140.055061 -7.159241 -26.070040 6.556994 0.216441 -0.807036 0.107665 4.077149 -57.305185 1.473366 174.582173 61.269399 174.763326 -1.582181 -39.158964 3.443789 0.095349 0.280968 0.040883
-66.819267 43.914353 17.352897 174.299465 -22.722818 -2.231993 -0.120896 18.010699 3.014864 -0.080250 2.042351 0.393933 -0.123383 3.375314 0.662080 -0.250159 15.725595 3.056255 -0.617705 17.034914 -3.688076 0.187405 -7.762559 -3.761845 9.690280 0.852950 -3.309815 -8.562795 -9.306530 -1.109000 64.692965 -76.157365 -60.082750 -1.944868 -6.598078 -39.010991 -14.516407 -0.409417 -5.787941 16.143680 -6.746058 -0.354482 -100.831392 -75.874511 97.755410 11.402833 0.816820 38.045217 -5.252629 -68.177699 15.145328 -142.502262 64.563588 -140.046509 -7.161225 -26.067207 6.555676 0.218122 -0.805750 0.109126 4.084658 -57.299097 1.468232 174.580486 61.272638 174.760211 -1.587578 -39.161045 3.450294 0.095164 0.284402 0.039998
-66.820777 43.915238 17.353202 174.304421 -22.729657 -2.229342 -0.126513 18.017007 3.011411 -0.079475 2.040334 0.397888 -0.125200 3.375433 0.659024 -0.244494 15.725228 3.061638 -0.607496 17.026833 -3.695106 0.186451 -7.760432 -3.763530 9.687174 0.853497 -3.316369 -8.538082 -9.305889 -1.121844 64.704079 -76.165877 -60.108113 -1.946414 -6.597969 -39.008345 -14.511496 -0.420358 -5.785268 16.144925 -6.736220 -0.357788 -100.859890 -75.874028 97.772410 11.400915 0.815896 38.057874 -5.237175 -68.170476 15.126033 -142.496848 64.561423 -140.038890 -7.162685 -26.069795 6.556624 0.219991 -0.801928 0.108838 4.091311 -57.290697 1.459944 174.579254 61.275821 174.757757 -1.590751 -39.160659 3.455192 0.094903 0.285681 0.040339
-66.822241 43.916638 17.352573 174.306187 -22.742474 -2.227622 -0.132001 18.024595 3.008844 -0.078947 2.040944 0.398171 -0.123176 3.379386 0.657965 -0.242103 15.727794 3.061731 -0.605439 17.022960 -3.696116 0.212166 -7.779759 -3.777780 9.685289 0.849022 -3.316199 -8.530037 -9.305566 -1.125997 64.732355 -76.169547 -60.133774 -1.944901 -6.605788 -39.009834 -14.512383 -0.428712 -5.778095 16.154100 -6.733976 -0.358615 -100.865485 -75.862941 97.781150 11.407673 0.821485 38.065945 -5.235598 -68.155354 15.117274 -142.514711 64.564537 -140.058664 -7.149725 -26.075886 6.554279 0.220023 -0.799090 0.103584 4.096651 -57.275755 1.451263 174.574395 61.277643 174.754114 -1.583810 -39.160019 3.454779 0.093518 0.284115 0.038106
-66.825229 43.917774 17.352413 174.304623 -22.750689 -2.218305 -0.130170 18.029379 3.008395 -0.078591 2.041950 0.397502 -0.125665 3.382144 0.653705 -0.243688 15.728185 3.058774 -0.601812 17.020448 -3.697540 0.228052 -7.790154 -3.782552 9.692854 0.846753 -3.321426 -8.529916 -9.307193 -1.124519 64.720256 -76.171184 -60.126231 -1.944727 -6.610143 -39.008404 -14.512842 -0.435065 -5.769518 16.157964 -6.727992 -0.366742 -100.858348 -75.853668 97.778673 11.402990 0.826834 38.080224 -5.215655 -68.146667 15.096659 -142.525057 64.568446 -140.069954 -7.160783 -26.082395 6.557996 0.226301 -0.791438 0.101981 4.112299 -57.263411 1.431859 174.568277 61.281575 174.746940 -1.580241 -39.161169 3.452607 0.092398 0.284480 0.039435
-66.828212 43.918986 17.352025 174.308707 -22.759314 -2.213671 -0.132084 18.036067 3.005315 -0.078430 2.042206 0.397243 -0.126729 3.382736 0.656164 -0.242320 15.728493 3.057025 -0.593713 17.015125 -3.698800 0.234344 -7.795894 -3.785068 9.694265 0.835837 -3.330323 -8.519577 -9.303519 -1.123835 64.707115 -76.173125 -60.110680 -1.944699 -6.603308 -39.023910 -14.517241 -0.438148 -5.763421 16.162789 -6.728009 -0.376207 -100.837133 -75.845705 97.758809 11.399852 0.834854 38.084212 -5.206014 -68.137015 15.082271 -142.566922 64.582130 -140.108247 -7.194084 -26.090520 6.561949 0.231916 -0.788064 0.102291 4.121370 -57.252380 1.415891 174.563957 61.284205 174.742395 -1.577140 -39.160571 3.451980 0.091896 0.283385 0.040123
-66.831131 43.919866 17.352385 174.310927 -22.762232 -2.211869 -0.130935 18.037375 3.005527 -0.080022 2.042849 0.396290 -0.124938 3.381940 0.654907 -0.238986 15.729651 3.054467 -0.586089 17.009437 -3.697057 0.230036 -7.795340 -3.780311 9.695411 0.830351 -3.327751 -8.493463 -9.316293 -1.128896 64.658469 -76.162847 -60.081142 -1.951329 -6.607472 -39.018596 -14.521677 -0.440749 -5.751933 16.164521 -6.725744 -0.379993 -100.825944 -75.846992 97.745096 11.399155 0.840951 38.088840 -5.215540 -68.132557 15.088828 -142.580424 64.589753 -140.122961 -7.217064 -26.094049 6.562084 0.251348 -0.785886 0.105651 4.127504 -57.248146 1.407132 174.569167 61.286540 174.744795 -1.572513 -39.160827 3.456704 0.089346 0.283134 0.038629
-66.834454 43.920877 17.352303 174.318510 -22.766550 -2.212178 -0.137014 18.041409 3.004089 -0.078701 2.042659 0.397038 -0.122510 3.382167 0.656143 -0.242393 15.732061 3.053346 -0.576260 16.999954 -3.695770 0.225568 -7.793049 -3.780700 9.702267 0.823374 -3.331641 -8.492882 -9.314323 -1.128899 64.706862 -76.157506 -60.123155 -1.952643 -6.600453 -39.013233 -14.521980 -0.448056 -5.745529 16.165206 -6.723749 -0.388565 -100.802338 -75.840674 97.726825 11.410409 0.846345 38.086140 -5.226397 -68.127007 15.089683 -142.616170 64.601992 -140.160131 -7.229735 -26.097339 6.555663 0.250108 -0.789388 0.110098 4.128161 -57.242703 1.397714 174.557887 61.288029 174.733046 -1.574895 -39.160244 3.459904 0.088440 0.282778 0.037877
-66.839820 43.921910 17.351801 174.326253 -22.771331 -2.202510 -0.145043 18.044152 2.994127 -0.079096 2.043105 0.397043 -0.123163 3.382719 0.656156 -0.244306 15.733288 3.050642 -0.575607 16.998830 -3.694432 0.234175 -7.800514 -3.779775 9.708136 0.818041 -3.333651 -8.490179 -9.312644 -1.129778 64.796812 -76.150154 -60.202439 -1.951365 -6.587283 -39.002235 -14.522591 -0.452177 -5.739009 16.166495 -6.719078 -0.394259 -100.825685 -75.843796 97.752294 11.414141 0.854732 38.089121 -5.214815 -68.119821 15.062541 -142.615511 64.601610 -140.171616 -7.217349 -26.104836 6.561020 0.243292 -0.789931 0.106397 4.143580 -57.236924 1.367051 174.551442 61.289722 174.726388 -1.577516 -39.153156 3.464677 0.091662 0.277643 0.037381
-66.843933 43.922692 17.352316 174.330439 -22.770175 -2.201229 -0.143881 18.043768 2.994504 -0.078551 2.042578 0.397380 -0.125049 3.383355 0.655228 -0.245749 15.729763 3.050511 -0.574482 16.999108 -3.695808 0.238926 -7.804489 -3.780246 9.711567 0.809950 -3.336147 -8.474155 -9.317943 -1.142134 64.755323 -76.152057 -60.168866 -1.949542 -6.579758 -38.999636 -14.525603 -0.454889 -5.734657 16.171615 -6.717206 -0.399557 -100.827469 -75.846568 97.744027 11.413937 0.857351 38.096836 -5.214369 -68.119493 15.055676 -142.607719 64.601623 -140.167536 -7.214347 -26.106852 6.561188 0.248290 -0.791066 0.108171 4.144782 -57.238805 1.356610 174.532120 61.290243 174.707340 -1.582275 -39.147414 3.464116 0.091754 0.274768 0.038567
-66.847552 43.923474 17.353167 174.328953 -22.767225 -2.201643 -0.140345 18.039807 2.997323 -0.079472 2.042818 0.396714 -0.120542 3.378247 0.656597 -0.247301 15.730421 3.050422 -0.567437 16.996153 -3.694873 0.236211 -7.800441 -3.779467 9.714532 0.800997 -3.340354 -8.469139 -9.311271 -1.148478 64.729573 -76.156018 -60.147182 -1.944451 -6.581528 -38.990921 -14.529813 -0.453357 -5.734281 16.181286 -6.716912 -0.401571 -100.832179 -75.849150 97.731922 11.423829 0.851162 38.107659 -5.212136 -68.119991 15.048416 -142.602310 64.605106 -140.163427 -7.196622 -26.108268 6.556305 0.232951 -0.791702 0.107184 4.142385 -57.242770 1.355755 174.525294 61.290160 174.698449 -1.582359 -39.142678 3.464760 0.091816 0.272013 0.038366
